<svg xmlns="http://www.w3.org/2000/svg" viewBox="0 0 920 620" role="img" aria-label="Pantalon, telas, cinta metrica y paleta de colores">
  <defs>
    <radialGradient id="halo" cx="54%" cy="48%" r="52%">
      <stop stop-color="#eaf2ff"/>
      <stop offset=".55" stop-color="#f6f9ff"/>
      <stop offset="1" stop-color="#ffffff"/>
    </radialGradient>
    <linearGradient id="pants" x1="388" x2="570" y1="110" y2="545" gradientUnits="userSpaceOnUse">
      <stop stop-color="#263b60"/>
      <stop offset=".45" stop-color="#142a4d"/>
      <stop offset="1" stop-color="#0d1d36"/>
    </linearGradient>
    <linearGradient id="pantsLight" x1="422" x2="478" y1="125" y2="536" gradientUnits="userSpaceOnUse">
      <stop stop-color="#445e86" stop-opacity=".55"/>
      <stop offset="1" stop-color="#ffffff" stop-opacity=".08"/>
    </linearGradient>
    <linearGradient id="clothBlue" x1="270" x2="388" y1="388" y2="492" gradientUnits="userSpaceOnUse">
      <stop stop-color="#8eb3dd"/>
      <stop offset="1" stop-color="#2d4d72"/>
    </linearGradient>
    <linearGradient id="clothGray" x1="244" x2="374" y1="446" y2="548" gradientUnits="userSpaceOnUse">
      <stop stop-color="#8b96a3"/>
      <stop offset="1" stop-color="#465466"/>
    </linearGradient>
    <filter id="shadow" x="-20%" y="-20%" width="140%" height="140%">
      <feDropShadow dx="0" dy="18" stdDeviation="22" flood-color="#0f172a" flood-opacity=".18"/>
    </filter>
    <filter id="smallShadow" x="-30%" y="-30%" width="160%" height="160%">
      <feDropShadow dx="0" dy="8" stdDeviation="9" flood-color="#0f172a" flood-opacity=".18"/>
    </filter>
    <pattern id="weave" width="12" height="12" patternUnits="userSpaceOnUse">
      <path d="M0 4h12M4 0v12" stroke="#fff" stroke-opacity=".18" stroke-width="1"/>
    </pattern>
  </defs>
  <rect width="920" height="620" fill="#fff"/>
  <circle cx="496" cy="318" r="288" fill="url(#halo)"/>

  <g filter="url(#shadow)">
    <path d="M383 112h214c5 0 10 5 10 10l-20 428c0 8-6 14-14 14h-68c-7 0-12-5-13-12l-18-294-20 294c-1 7-6 12-13 12h-68c-8 0-14-6-14-14l14-428c0-5 5-10 10-10Z" fill="url(#pants)"/>
    <path d="M383 112h214v48H383z" fill="#1b3155"/>
    <path d="M396 112v45M581 112v45M490 160v397" fill="none" stroke="#07162b" stroke-width="4" opacity=".6"/>
    <path d="M423 169c18 20 45 31 67 31 22 0 49-11 67-31" fill="none" stroke="#0b1c35" stroke-width="4" opacity=".45"/>
    <path d="M423 126h40v18h-40zM514 126h40v18h-40z" fill="#0b1c35" opacity=".62"/>
    <circle cx="490" cy="134" r="7" fill="#a99b78"/>
    <path d="M420 182c16 67 18 196 17 352" fill="none" stroke="url(#pantsLight)" stroke-width="9" opacity=".55"/>
    <path d="M548 182c-10 72-14 201-11 352" fill="none" stroke="#07162b" stroke-width="4" opacity=".3"/>
  </g>

  <g filter="url(#smallShadow)">
    <path d="M205 411l143-45 64 62-151 58c-25-17-43-41-56-75Z" fill="url(#clothBlue)"/>
    <path d="M246 478l148-42 46 57-158 57c-18-16-30-40-36-72Z" fill="url(#clothGray)"/>
    <path d="M209 413l145-45M248 480l148-42" stroke="#fff" stroke-opacity=".22" stroke-width="2"/>
    <path d="M205 411l143-45 64 62-151 58c-25-17-43-41-56-75Z" fill="url(#weave)" opacity=".5"/>
  </g>

  <g filter="url(#smallShadow)">
    <path d="M675 238l122-58 102 173-139 67-85-182Z" fill="#e8edf5"/>
    <path d="M650 262l134-66 87 184-139 61-82-179Z" fill="#1c2d4c"/>
    <path d="M626 292l132-72 99 174-144 72-87-174Z" fill="#35537b"/>
    <path d="M611 322l138-75 77 178-132 70-83-173Z" fill="#d6dde8"/>
    <path d="M681 380l119-62 24 57-119 62-24-57Z" fill="#c7b19d"/>
  </g>

  <g filter="url(#smallShadow)">
    <rect x="760" y="279" width="86" height="248" rx="18" transform="rotate(20 760 279)" fill="#fff"/>
    <rect x="785" y="314" width="56" height="32" rx="3" transform="rotate(20 785 314)" fill="#d7c3b4"/>
    <rect x="773" y="357" width="56" height="32" rx="3" transform="rotate(20 773 357)" fill="#e7edf4"/>
    <rect x="761" y="400" width="56" height="32" rx="3" transform="rotate(20 761 400)" fill="#b7c7d8"/>
    <rect x="749" y="443" width="56" height="32" rx="3" transform="rotate(20 749 443)" fill="#6f8fb8"/>
    <rect x="737" y="486" width="56" height="32" rx="3" transform="rotate(20 737 486)" fill="#315c91"/>
  </g>

  <g filter="url(#smallShadow)">
    <path d="M199 280c-59 12-93 1-102-34-8-30 20-58 62-52 39 5 68 30 90 71" fill="none" stroke="#e5e7eb" stroke-width="22"/>
    <path d="M103 246c39 5 77 12 114 20" fill="none" stroke="#9ca3af" stroke-width="3" stroke-dasharray="7 10"/>
    <text x="119" y="230" font-family="Arial, sans-serif" font-size="16" font-weight="700" fill="#64748b">cm</text>
  </g>

  <g filter="url(#smallShadow)">
    <circle cx="770" cy="490" r="24" fill="#101827"/>
    <circle cx="770" cy="490" r="13" fill="none" stroke="#34445d" stroke-width="4"/>
    <circle cx="760" cy="482" r="3" fill="#94a3b8"/>
    <circle cx="780" cy="498" r="3" fill="#94a3b8"/>
    <circle cx="805" cy="555" r="24" fill="#101827"/>
    <circle cx="805" cy="555" r="13" fill="none" stroke="#34445d" stroke-width="4"/>
    <circle cx="795" cy="547" r="3" fill="#94a3b8"/>
    <circle cx="815" cy="563" r="3" fill="#94a3b8"/>
  </g>
</svg>
